<svg width="32" height="32" viewBox="0 0 32 32" fill="none" xmlns="http://www.w3.org/2000/svg">
<path d="M6.66669 18.6667H24.181C25.5314 18.6667 26.2066 18.6667 26.7442 18.415C27.2177 18.1932 27.6155 17.8371 27.8883 17.391C28.1979 16.8845 28.2724 16.2134 28.4216 14.8713L29.2016 7.85121C29.2471 7.44126 29.2699 7.23628 29.204 7.07763C29.1461 6.93829 29.0426 6.82271 28.9105 6.74978C28.7601 6.66675 28.5539 6.66675 28.1414 6.66675H6.00002M2.6665 2.66675H4.33109C4.68392 2.66675 4.86034 2.66675 4.99835 2.73385C5.11986 2.79292 5.22055 2.88751 5.28709 3.0051C5.36266 3.13866 5.37367 3.31474 5.39568 3.66688L6.604 23C6.626 23.3521 6.63701 23.5282 6.71259 23.6617C6.77912 23.7793 6.87981 23.8739 7.00132 23.933C7.13934 24.0001 7.31575 24.0001 7.66859 24.0001H25.3332M9.99984 28.6667H10.0132M21.9998 28.6667H22.0132M10.6665 28.6667C10.6665 29.0349 10.368 29.3334 9.99984 29.3334C9.63165 29.3334 9.33317 29.0349 9.33317 28.6667C9.33317 28.2986 9.63165 28.0001 9.99984 28.0001C10.368 28.0001 10.6665 28.2986 10.6665 28.6667ZM22.6665 28.6667C22.6665 29.0349 22.368 29.3334 21.9998 29.3334C21.6316 29.3334 21.3332 29.0349 21.3332 28.6667C21.3332 28.2986 21.6316 28.0001 21.9998 28.0001C22.368 28.0001 22.6665 28.2986 22.6665 28.6667Z" stroke="#DBE4EE" stroke-width="2" stroke-linecap="round" stroke-linejoin="round"/>
</svg>
