<svg width="32" height="32" viewBox="0 0 32 32" fill="none" xmlns="http://www.w3.org/2000/svg">
<path d="M26.6668 28C26.6668 26.1392 26.6668 25.2089 26.4372 24.4518C25.9201 22.7473 24.5862 21.4134 22.8817 20.8963C22.1246 20.6667 21.1942 20.6667 19.3335 20.6667H12.6668C10.8061 20.6667 9.8757 20.6667 9.11864 20.8963C7.4141 21.4134 6.08022 22.7473 5.56315 24.4518C5.3335 25.2089 5.3335 26.1392 5.3335 28M22.0002 10C22.0002 13.3137 19.3139 16 16.0002 16C12.6865 16 10.0002 13.3137 10.0002 10C10.0002 6.68629 12.6865 4 16.0002 4C19.3139 4 22.0002 6.68629 22.0002 10Z" stroke="#3E7CB1" stroke-width="2" stroke-linecap="round" stroke-linejoin="round"/>
</svg>
